<svg width="40" height="40" viewBox="0 0 40 40" fill="none" xmlns="http://www.w3.org/2000/svg">
<path fill-rule="evenodd" clip-rule="evenodd" d="M19.9999 4C17.8782 4 15.8434 4.84285 14.3431 6.34315C12.8428 7.84344 11.9999 9.87827 11.9999 12V14H9.99994C9.50758 14 9.0325 14.1816 8.66569 14.51C8.29887 14.8384 8.0661 15.2906 8.01194 15.78L6.01194 33.78C5.981 34.0595 6.00936 34.3424 6.09516 34.6102C6.18097 34.878 6.32228 35.1247 6.50988 35.3342C6.69748 35.5437 6.92716 35.7113 7.18391 35.826C7.44066 35.9407 7.71872 36 7.99994 36H31.9999C32.2812 36 32.5592 35.9407 32.816 35.826C33.0727 35.7113 33.3024 35.5437 33.49 35.3342C33.6776 35.1247 33.8189 34.878 33.9047 34.6102C33.9905 34.3424 34.0189 34.0595 33.9879 33.78L31.9879 15.78C31.9338 15.2906 31.701 14.8384 31.3342 14.51C30.9674 14.1816 30.4923 14 29.9999 14H27.9999V12C27.9999 9.87827 27.1571 7.84344 25.6568 6.34315C24.1565 4.84285 22.1217 4 19.9999 4ZM23.9999 14V12C23.9999 10.9391 23.5785 9.92172 22.8284 9.17157C22.0782 8.42143 21.0608 8 19.9999 8C18.9391 8 17.9217 8.42143 17.1715 9.17157C16.4214 9.92172 15.9999 10.9391 15.9999 12V14H23.9999ZM11.9999 20C11.9999 19.4696 12.2107 18.9609 12.5857 18.5858C12.9608 18.2107 13.4695 18 13.9999 18C14.5304 18 15.0391 18.2107 15.4142 18.5858C15.7892 18.9609 15.9999 19.4696 15.9999 20C15.9999 20.5304 15.7892 21.0391 15.4142 21.4142C15.0391 21.7893 14.5304 22 13.9999 22C13.4695 22 12.9608 21.7893 12.5857 21.4142C12.2107 21.0391 11.9999 20.5304 11.9999 20ZM25.9999 18C25.4695 18 24.9608 18.2107 24.5857 18.5858C24.2107 18.9609 23.9999 19.4696 23.9999 20C23.9999 20.5304 24.2107 21.0391 24.5857 21.4142C24.9608 21.7893 25.4695 22 25.9999 22C26.5304 22 27.0391 21.7893 27.4142 21.4142C27.7892 21.0391 27.9999 20.5304 27.9999 20C27.9999 19.4696 27.7892 18.9609 27.4142 18.5858C27.0391 18.2107 26.5304 18 25.9999 18Z" fill="#161515"/>
</svg>
