<svg width="40" height="40" viewBox="0 0 40 40" fill="none" xmlns="http://www.w3.org/2000/svg">
<path d="M20.0001 35C19.7808 35.0013 19.5633 34.9593 19.3603 34.8763C19.1572 34.7934 18.9725 34.6712 18.8168 34.5167L5.86677 21.55C4.24237 19.9087 3.33121 17.6926 3.33121 15.3834C3.33121 13.0741 4.24237 10.8581 5.86677 9.21669C7.50387 7.58421 9.72149 6.66748 12.0334 6.66748C14.3454 6.66748 16.563 7.58421 18.2001 9.21669L20.0001 11.0167L21.8001 9.21669C23.4372 7.58421 25.6548 6.66748 27.9668 6.66748C30.2787 6.66748 32.4963 7.58421 34.1334 9.21669C35.7578 10.8581 36.669 13.0741 36.669 15.3834C36.669 17.6926 35.7578 19.9087 34.1334 21.55L21.1834 34.5167C21.0277 34.6712 20.843 34.7934 20.6399 34.8763C20.4369 34.9593 20.2194 35.0013 20.0001 35Z" fill="#161515"/>
</svg>
