<svg width="831" height="508" viewBox="0 0 831 508" fill="none" xmlns="http://www.w3.org/2000/svg">
<path d="M4 349.965C41.9099 281.129 172.665 145.489 172.665 62.8375C172.665 51.571 178.061 2.30296 156.107 4.13248C106.672 8.25201 85.2628 115.281 81.5966 150.895C73.3784 230.729 71.0598 312.245 71.0598 392.488C71.0598 414.13 56.1192 507.224 101.165 482.051C155.188 451.862 158.916 403.983 178.362 349.965C183.325 336.18 198.214 274.047 185.248 313.463C169.438 361.526 174.294 377.819 162.88 426.733C157.111 451.457 165.01 468.478 191.48 473.772C232.666 482.009 259.658 471.494 282.548 436.894C310.886 394.058 337.741 261.743 253.948 258.521C190.763 256.09 174.625 331.918 169.539 395.499C165.255 449.046 206.661 480.697 253.948 466.305C284.985 456.859 294.466 421.055 314.911 395.499C332.065 374.057 334.868 348.892 348.78 326.634C356.182 314.79 355.93 285.534 355.93 272C355.93 271.257 355.255 337.492 355.93 349.965C357.819 384.913 406.407 515.466 457.158 461.73C486.978 430.156 508.838 337.272 504 296.152C503.254 289.814 464.768 310.756 481.995 337.17C510.847 381.411 562.312 409.014 611.823 423.346C725.189 456.163 718.029 313.463 619.726 313.463C557.572 313.463 542.989 411.085 558 466.305C583.189 558.966 750.304 450.5 827.042 450.5" stroke="black" stroke-width="7" stroke-linecap="round"/>
</svg>
