<svg width="617" height="164" viewBox="0 0 617 164" fill="none" xmlns="http://www.w3.org/2000/svg">
<path d="M520.032 142.651C553.919 135.02 613.36 115.869 612.617 111.234C617.075 102.522 581.405 96.7718 570.259 109.239C570.259 112.231 564.685 95.7745 547.965 95.7745C514.524 95.7745 511.761 109.53 515.105 119.504L520.032 142.651Z" fill="#DA4302"/>
<path d="M4 109.647C29.8769 88.6248 119.129 47.2007 119.129 21.9589C119.129 18.5181 120.865 3.45642 105.879 4.01515C90.8938 4.57388 77.9505 21.9589 56.9666 48.8516C39.2878 71.5086 22.7822 99.0472 22.7822 123.553C22.7822 130.163 21.6308 155.146 52.3785 147.458C89.2538 138.238 99.176 125.736 112.45 109.239C115.838 105.029 136.568 86.462 127.718 98.4996C116.926 113.178 120.241 118.154 112.45 133.092C108.512 140.643 113.904 145.841 131.972 147.458C160.085 149.974 193.876 138.422 209.5 127.855C228.843 114.773 247.174 74.3642 189.978 73.3799C146.848 72.6378 120.467 104.136 116.995 123.553C114.071 139.907 142.334 149.573 174.612 145.178C195.797 142.293 202.269 131.358 216.225 123.553C227.933 117.005 229.847 109.32 239.343 102.522C244.396 98.9049 255.568 89.6406 255.568 85.5072C255.568 85.2804 249.307 115.004 249.307 115.004C250.597 125.677 240.847 163.869 275.489 147.458C295.844 137.815 348.597 105.771 345.295 93.213C344.786 91.2775 308.693 94.4551 320.452 102.522C340.147 116.033 375.276 124.463 409.072 128.84C486.454 138.862 491.389 98.4996 424.288 98.4996C381.862 98.4996 352.893 128.313 363.139 145.178C380.333 173.476 466.528 154.7 520.032 142.651M520.032 142.651C553.919 135.02 613.36 115.869 612.617 111.234C617.075 102.522 581.405 96.7718 570.259 109.239C570.259 112.231 564.685 95.7745 547.965 95.7745C514.524 95.7745 511.761 109.53 515.105 119.504L520.032 142.651Z" stroke="#1B1B1B" stroke-width="7" stroke-linecap="round"/>
</svg>
