<svg width="281" height="164" viewBox="0 0 281 164" fill="none" xmlns="http://www.w3.org/2000/svg">
<path d="M4 109.909C15.6073 88.8316 55.6419 47.2987 55.6419 21.9907C55.6419 18.5409 57.2942 3.45501 50.5722 4.0152C35.4363 5.27661 28.8811 38.0489 27.7586 48.954C25.2423 73.3994 24.5324 98.3596 24.5324 122.93C24.5324 129.557 19.9579 158.062 33.7501 150.354C50.2908 141.11 51.4322 126.45 57.3864 109.909C58.9059 105.688 63.4647 86.6632 59.4948 98.7323C54.6539 113.45 56.1407 118.438 52.6462 133.416C50.8798 140.986 53.2983 146.198 61.4029 147.819C74.0132 150.342 82.2778 147.122 89.2862 136.527C97.9626 123.411 106.185 82.8959 80.5295 81.9091C61.1832 81.1649 56.2422 104.383 54.6848 123.852C53.3732 140.248 66.051 149.94 80.5295 145.533C90.0324 142.641 92.9353 131.677 99.1951 123.852C104.447 117.286 105.306 109.581 109.565 102.765C111.831 99.1387 111.754 90.1807 111.754 86.0365C111.754 85.809 111.548 106.09 111.754 109.909C112.333 120.61 127.21 160.586 142.748 144.132C151.879 134.464 158.572 106.023 157.091 93.4318C156.862 91.4912 145.078 97.9035 150.353 105.992C159.187 119.538 174.944 127.99 190.104 132.379C224.814 142.427 222.622 98.7323 192.523 98.7323C173.493 98.7323 169.028 128.624 173.624 145.533C181.337 173.906 220 155.081 244 143M244 143C259.2 135.349 277.333 116.148 277 111.5C279 102.765 263 97 258 109.5C258 112.5 255.5 96 248 96C233 96 238 109.5 239.5 119.5L244 143Z" stroke="#12602A" stroke-width="7" stroke-linecap="round"/>
</svg>
